<svg width="69" height="28" viewBox="0 0 69 28" fill="none" xmlns="http://www.w3.org/2000/svg">
<g clip-path="url(#clip0_1705_24)">
<path d="M68.915 0H0V28H68.915V0Z" fill="white"/>
<path d="M5.60309 23.4007H3.48384C3.15659 22.7293 2.86026 22.0398 2.59484 21.3322C2.31808 20.5838 2.08867 19.8187 1.90797 19.0415C1.71428 18.2051 1.57168 17.3577 1.48097 16.504C1.37874 15.5414 1.3285 14.574 1.33047 13.606C1.32499 12.6121 1.377 11.6188 1.48622 10.631C1.58215 9.81085 1.72089 8.99626 1.90184 8.19059C2.07709 7.41975 2.30275 6.66127 2.57734 5.91997C2.84684 5.20306 3.14901 4.49928 3.48384 3.80859H5.60309V4.09734C5.26635 4.62696 4.96724 5.17958 4.70796 5.75109C4.39436 6.44826 4.1312 7.16702 3.92046 7.90184C3.67378 8.76333 3.48464 9.64026 3.35434 10.5268C3.20786 11.546 3.1365 12.5746 3.14084 13.6042C3.13377 14.6369 3.20308 15.6687 3.34822 16.6912C3.48241 17.5759 3.67357 18.4509 3.92046 19.311C4.13025 20.0384 4.39048 20.7503 4.69921 21.4416C4.95734 22.0213 5.25858 22.5808 5.60046 23.1155L5.60309 23.4007Z" fill="#AA0000"/>
<path d="M24.6594 13.6012C24.6615 14.5694 24.6095 15.5368 24.5037 16.4992C24.4152 17.3529 24.2744 18.2003 24.0819 19.0367C23.902 19.8141 23.6726 20.5793 23.3951 21.3274C23.1302 22.0379 22.8339 22.7286 22.5061 23.3994H20.3877V23.1107C20.7282 22.5794 21.0291 22.0237 21.2881 21.4482C21.6007 20.7548 21.8613 20.0391 22.0677 19.3071C22.3143 18.4474 22.5031 17.5722 22.6329 16.6873C22.7828 15.6653 22.8545 14.6333 22.8473 13.6003C22.8515 12.5705 22.7781 11.5418 22.6277 10.5229C22.501 9.63621 22.3139 8.75918 22.0677 7.89794C21.8586 7.16255 21.5954 6.44369 21.2802 5.74719C21.0239 5.17532 20.7268 4.62264 20.3912 4.09344V3.80469H22.5096C22.845 4.49478 23.1454 5.19856 23.4108 5.91606C23.6888 6.6567 23.9162 7.41529 24.0916 8.18669C24.2728 8.99207 24.4098 9.80673 24.5019 10.6271C24.6148 11.6147 24.6685 12.6081 24.6629 13.6021L24.6594 13.6012Z" fill="#AA0000"/>
<path d="M7.2647 11.6628C7.02148 11.6687 6.77977 11.6232 6.55528 11.5295C6.33083 11.4357 6.1286 11.2957 5.96182 11.1186C5.61522 10.7493 5.42818 10.2582 5.4412 9.75182C5.43087 9.50206 5.4721 9.25283 5.5623 9.01966C5.65249 8.78649 5.78976 8.57439 5.9655 8.39659C6.14127 8.21879 6.35172 8.07911 6.58384 7.98618C6.81593 7.89329 7.06467 7.84916 7.31457 7.85658C7.56115 7.84776 7.80674 7.89175 8.03494 7.98562C8.26311 8.07949 8.46859 8.22107 8.63757 8.40083C8.81159 8.57978 8.94774 8.79191 9.03797 9.02463C9.12817 9.25738 9.17055 9.50588 9.16257 9.75533C9.1722 10.0091 9.13006 10.2621 9.03878 10.499C8.94746 10.736 8.80886 10.9518 8.63145 11.1335C8.45267 11.3115 8.23889 11.4505 8.00362 11.5416C7.76835 11.6327 7.51673 11.674 7.2647 11.6628ZM7.2647 20.1381C7.02036 20.1438 6.77767 20.0971 6.55294 20.001C6.3282 19.9051 6.12664 19.762 5.96182 19.5816C5.61543 19.2125 5.42839 18.7218 5.4412 18.2157C5.43024 17.9656 5.47102 17.7159 5.56093 17.4822C5.65088 17.2485 5.78805 17.0359 5.96385 16.8576C6.13966 16.6793 6.35036 16.5392 6.58276 16.446C6.81516 16.3529 7.06429 16.3086 7.31457 16.3161C7.56111 16.3074 7.80667 16.3515 8.03484 16.4454C8.26297 16.5392 8.46849 16.6807 8.63757 16.8603C8.81166 17.0394 8.94785 17.2517 9.03808 17.4846C9.12827 17.7174 9.17062 17.9661 9.16257 18.2157C9.17146 18.4711 9.12904 18.7256 9.03783 18.9643C8.94659 19.2029 8.80841 19.4209 8.63145 19.6052C8.45288 19.7837 8.2392 19.9233 8.00397 20.015C7.7687 20.1067 7.51698 20.1486 7.2647 20.1381Z" fill="#CC1111"/>
<path d="M19.9616 19.849H16.9656V18.1471H16.9253C16.6699 18.7441 16.2432 19.252 15.6992 19.6065C15.1551 19.9609 14.5182 20.1461 13.8689 20.1386C13.4289 20.1604 12.9895 20.0845 12.5823 19.9164C12.1751 19.7483 11.8101 19.4922 11.5134 19.1665C10.9177 18.4284 10.6146 17.4967 10.6621 16.5494C10.6621 14.2487 11.8413 12.921 14.1997 12.5664L16.9857 12.1376C16.9857 10.8409 16.3776 10.1925 15.1613 10.1925C13.8904 10.2098 12.6622 10.6542 11.6744 11.4542V8.69888C12.2413 8.38664 12.848 8.15291 13.4778 8.00412C14.1605 7.81558 14.8644 7.71443 15.5726 7.70312C18.4986 7.70312 19.9619 9.38981 19.9624 12.7632L19.9616 19.849ZM16.9866 15.0321V14.2333L15.1228 14.5115C14.0938 14.6655 13.5793 15.2019 13.5793 16.1206C13.5651 16.4992 13.6981 16.8686 13.9503 17.1514C14.0839 17.2845 14.2438 17.3883 14.4198 17.4561C14.5957 17.5239 14.7839 17.5542 14.9723 17.5451C15.2532 17.551 15.5314 17.49 15.7841 17.3673C16.0368 17.2445 16.2567 17.0634 16.4257 16.839C16.8131 16.3182 17.011 15.6807 16.9866 15.0321Z" fill="#CC1111"/>
<path d="M27.1152 20.3004V7.52539H31.2977C32.126 7.52539 32.8435 7.68289 33.4502 7.99789C34.0685 8.31289 34.541 8.76205 34.8677 9.34539C35.2059 9.91705 35.3753 10.5937 35.3753 11.3754C35.3753 12.1454 35.2059 12.822 34.8677 13.4054C34.5294 13.9887 34.0569 14.4379 33.4502 14.7529C32.8435 15.0679 32.126 15.2254 31.2977 15.2254H29.0052V20.3004H27.1152ZM29.0052 13.5279H31.2977C31.951 13.5279 32.4702 13.3354 32.8552 12.9504C33.2519 12.5537 33.4502 12.0287 33.4502 11.3754C33.4502 10.7104 33.2519 10.1854 32.8552 9.80039C32.4702 9.41539 31.951 9.22289 31.2977 9.22289H29.0052V13.5279ZM37.5908 20.3004V7.52539H41.1608C42.0008 7.52539 42.7299 7.68874 43.3483 8.01539C43.9668 8.33039 44.4449 8.77955 44.7833 9.36289C45.1333 9.94624 45.3083 10.6345 45.3083 11.4279V16.3804C45.3083 17.162 45.1333 17.8504 44.7833 18.4454C44.4449 19.0404 43.9668 19.5012 43.3483 19.8279C42.7299 20.1429 42.0008 20.3004 41.1608 20.3004H37.5908ZM39.4808 18.5854H41.1608C41.8608 18.5854 42.4093 18.3929 42.8058 18.0079C43.2143 17.6112 43.4183 17.0687 43.4183 16.3804V11.4279C43.4183 10.7512 43.2143 10.2204 42.8058 9.83539C42.4093 9.43874 41.8608 9.24039 41.1608 9.24039H39.4808V18.5854ZM48.0842 20.3004V7.52539H51.6542C52.4942 7.52539 53.2232 7.68874 53.8417 8.01539C54.4598 8.33039 54.9382 8.77955 55.2767 9.36289C55.6267 9.94624 55.8017 10.6345 55.8017 11.4279V16.3804C55.8017 17.162 55.6267 17.8504 55.2767 18.4454C54.9382 19.0404 54.4598 19.5012 53.8417 19.8279C53.2232 20.1429 52.4942 20.3004 51.6542 20.3004H48.0842ZM49.9742 18.5854H51.6542C52.3542 18.5854 52.9023 18.3929 53.2992 18.0079C53.7073 17.6112 53.9117 17.0687 53.9117 16.3804V11.4279C53.9117 10.7512 53.7073 10.2204 53.2992 9.83539C52.9023 9.43874 52.3542 9.24039 51.6542 9.24039H49.9742V18.5854ZM59.0322 20.3004V7.52539H60.9222V18.5679H66.5047V20.3004H59.0322Z" fill="black"/>
</g>
<defs>
<clipPath id="clip0_1705_24">
<rect width="68.915" height="28" fill="white"/>
</clipPath>
</defs>
</svg>
